<svg xmlns="http://www.w3.org/2000/svg"
     width="0.193333in" height="0.21in"
     viewBox="0 0 58 63">
  <path id="x"
        fill="#031e39" stroke="none" stroke-width="0"
        d="M 52.94,15.12
           C 54.13,15.12 56.78,14.86 57.59,15.82
             58.26,16.60 57.65,17.79 57.20,18.52
             55.82,20.71 54.18,22.01 52.34,23.72
             52.34,23.72 46.14,29.00 46.14,29.00
             40.54,33.73 34.88,38.50 30.38,44.32
             28.75,46.43 27.49,48.78 26.67,51.32
             26.19,52.82 26.07,54.30 27.36,55.45
             28.98,56.90 31.90,56.72 33.94,56.72
             33.94,56.72 35.34,61.52 35.34,61.52
             35.34,61.52 30.94,61.92 30.94,61.92
             25.44,61.98 18.24,60.85 17.57,54.12
             17.46,52.96 17.83,51.26 18.12,50.12
             18.48,48.72 19.62,46.58 20.38,45.32
             26.29,35.54 37.65,28.75 47.14,22.83
             47.14,22.83 53.74,18.45 53.74,18.45
             54.27,18.00 55.49,16.96 55.11,16.16
             54.79,15.47 53.59,15.40 52.94,15.12 Z" />
   <path id="y"
        fill="#dba21d" stroke="none" stroke-width="0"
        d="M 30.64,0.44
           C 30.64,0.44 30.73,0.24 30.83,0.24
             30.93,0.24 31.04,0.44 31.04,0.44
             31.04,0.44 35.87,15.24 35.87,15.24
             35.87,15.24 37.02,18.84 37.02,18.84
             37.17,19.33 37.31,19.91 37.87,20.08
             38.30,20.21 40.81,19.51 41.44,19.37
             44.06,18.77 46.76,18.24 49.44,18.24
             48.53,19.31 46.68,20.27 45.44,21.05
             45.44,21.05 37.64,25.97 37.64,25.97
             31.34,30.05 25.50,34.87 20.67,40.64
             18.51,43.23 16.23,47.14 15.42,50.44
             15.18,51.44 15.01,52.61 15.05,53.64
             15.08,54.28 15.36,55.22 15.05,55.77
             14.80,56.19 14.05,56.63 13.64,56.90
             13.64,56.90 10.64,58.84 10.64,58.84
             10.64,58.84 12.44,53.04 12.44,53.04
             12.44,53.04 16.11,42.04 16.11,42.04
             16.11,42.04 17.61,37.64 17.61,37.64
             17.61,37.64 18.01,35.65 18.01,35.65
             18.01,35.65 16.64,34.26 16.64,34.26
             16.64,34.26 13.44,31.96 13.44,31.96
             13.44,31.96 5.04,25.84 5.04,25.84
             5.04,25.84 0.44,22.24 0.44,22.24
             0.44,22.24 21.24,22.24 21.24,22.24
             21.24,22.24 22.77,22.03 22.77,22.03
             22.77,22.03 23.54,20.64 23.54,20.64
             23.54,20.64 24.76,17.24 24.76,17.24
             24.76,17.24 26.51,12.04 26.51,12.04
             26.51,12.04 30.64,0.44 30.64,0.44 Z
           M 41.24,36.44
           C 42.12,37.45 43.06,41.18 43.55,42.64
             43.55,42.64 48.24,57.44 48.24,57.44
             48.24,57.44 43.24,54.15 43.24,54.15
             43.24,54.15 31.84,46.04 31.84,46.04
             32.29,44.89 33.59,43.57 34.46,42.64
             36.56,40.38 38.85,38.36 41.24,36.44 Z" />
</svg>
